<svg xmlns="http://www.w3.org/2000/svg" width="11" height="11" viewBox="0 0 11 11" fill="none"><path d="M10.1253 0.5625V7.875C10.1253 8.02418 10.0661 8.16726 9.96056 8.27275C9.85507 8.37824 9.712 8.4375 9.56281 8.4375C9.41363 8.4375 9.27055 8.37824 9.16507 8.27275C9.05958 8.16726 9.00031 8.02418 9.00031 7.875V1.92023L0.960782 9.96047C0.855234 10.066 0.71208 10.1253 0.562813 10.1253C0.413546 10.1253 0.270392 10.066 0.164844 9.96047C0.0592961 9.85492 0 9.71177 0 9.5625C0 9.41323 0.0592961 9.27008 0.164844 9.16453L8.20508 1.125H2.25031C2.10113 1.125 1.95805 1.06574 1.85257 0.960247C1.74708 0.854758 1.68781 0.711684 1.68781 0.5625C1.68781 0.413316 1.74708 0.270242 1.85257 0.164753C1.95805 0.0592633 2.10113 0 2.25031 0H9.56281C9.712 0 9.85507 0.0592633 9.96056 0.164753C10.0661 0.270242 10.1253 0.413316 10.1253 0.5625Z" fill="white"></path></svg>