<svg xmlns="http://www.w3.org/2000/svg" width="16" height="16" viewBox="0 0 16 16" fill="none"><path d="M7.74997 0C5.94105 0.0119491 4.1925 0.652148 2.80351 1.81105C1.41452 2.96996 0.471437 4.57553 0.135621 6.35305C-0.200196 8.13057 0.0921324 9.96955 0.962585 11.5553C1.83304 13.1411 3.22751 14.3751 4.90739 15.0461C4.79448 14.3074 4.79448 13.5559 4.90739 12.8171L5.82736 8.91599C5.68198 8.56264 5.60947 8.18356 5.61419 7.80149C5.61419 6.72023 6.24398 5.90644 7.02454 5.90644C7.16588 5.9043 7.30601 5.93274 7.43533 5.9898C7.56465 6.04687 7.68011 6.13122 7.7738 6.23707C7.86749 6.34291 7.93718 6.46776 7.97812 6.60306C8.01906 6.73836 8.03026 6.88091 8.01097 7.02094C8.01097 7.45215 7.83427 8.02277 7.64947 8.62095C7.54815 8.95085 7.44359 9.28965 7.36415 9.61792C7.31608 9.79047 7.3103 9.97205 7.3473 10.1473C7.38431 10.3226 7.46301 10.4863 7.57673 10.6247C7.69046 10.7631 7.83586 10.872 8.00062 10.9422C8.16538 11.0125 8.34465 11.042 8.52323 11.0283C9.90521 11.0283 10.9751 9.562 10.9751 7.4562C10.9888 7.02821 10.9132 6.60207 10.753 6.20493C10.5929 5.80778 10.3518 5.44834 10.0452 5.14951C9.73847 4.85067 9.3729 4.61899 8.97174 4.46924C8.57057 4.31948 8.14261 4.25492 7.71512 4.27968C7.25867 4.26004 6.80298 4.33324 6.37564 4.49484C5.9483 4.65644 5.5582 4.90307 5.22895 5.21982C4.8997 5.53657 4.63815 5.91683 4.46013 6.3376C4.28212 6.75837 4.19135 7.21088 4.1933 7.66775C4.18746 8.30419 4.38261 8.92624 4.75096 9.44528C4.77779 9.47502 4.79687 9.51093 4.80648 9.54981C4.8161 9.5887 4.81596 9.62936 4.80608 9.66818C4.74529 9.91377 4.61155 10.4487 4.58885 10.5541C4.56697 10.6595 4.47213 10.7267 4.32704 10.6595C3.35196 10.2031 2.74486 8.78225 2.74486 7.63452C2.74486 5.17695 4.53373 2.91472 7.89993 2.91472C10.6015 2.91472 12.7081 4.84219 12.7081 7.42297C12.7081 10.1083 11.0367 12.27 8.65697 12.27C8.30819 12.2818 7.96196 12.2065 7.64962 12.0508C7.33728 11.8951 7.06867 11.664 6.8681 11.3784L6.3834 13.2346C6.15097 13.9557 5.82506 14.6432 5.41398 15.2796C6.17144 15.5041 6.9584 15.6131 7.74835 15.603C9.81744 15.603 11.8018 14.781 13.2648 13.318C14.7279 11.8549 15.5498 9.87058 15.5498 7.80149C15.5498 5.73241 14.7279 3.74807 13.2648 2.285C11.8018 0.821941 9.81744 0 7.74835 0" fill="#D9F8CE"></path></svg>