<svg xmlns="http://www.w3.org/2000/svg" width="22" height="18" viewBox="0 0 22 18" fill="none"><path d="M21.125 17.0625C21.125 17.278 21.0394 17.4847 20.887 17.637C20.7347 17.7894 20.528 17.875 20.3125 17.875H0.8125C0.597012 17.875 0.390349 17.7894 0.237976 17.637C0.0856024 17.4847 0 17.278 0 17.0625V0.8125C0 0.597012 0.0856024 0.390349 0.237976 0.237976C0.390349 0.0856026 0.597012 0 0.8125 0C1.02799 0 1.23465 0.0856026 1.38702 0.237976C1.5394 0.390349 1.625 0.597012 1.625 0.8125V11.8513L6.73766 6.73766C6.81312 6.66211 6.90273 6.60218 7.00136 6.5613C7.1 6.52041 7.20572 6.49936 7.3125 6.49936C7.41928 6.49936 7.525 6.52041 7.62364 6.5613C7.72227 6.60218 7.81188 6.66211 7.88734 6.73766L10.5625 9.41383L15.9138 4.0625H13.8125C13.597 4.0625 13.3903 3.9769 13.238 3.82452C13.0856 3.67215 13 3.46549 13 3.25C13 3.03451 13.0856 2.82785 13.238 2.67548C13.3903 2.5231 13.597 2.4375 13.8125 2.4375H17.875C18.0905 2.4375 18.2972 2.5231 18.4495 2.67548C18.6019 2.82785 18.6875 3.03451 18.6875 3.25V7.3125C18.6875 7.52799 18.6019 7.73465 18.4495 7.88702C18.2972 8.0394 18.0905 8.125 17.875 8.125C17.6595 8.125 17.4528 8.0394 17.3005 7.88702C17.1481 7.73465 17.0625 7.52799 17.0625 7.3125V5.21117L11.1373 11.1373C11.0619 11.2129 10.9723 11.2728 10.8736 11.3137C10.775 11.3546 10.6693 11.3756 10.5625 11.3756C10.4557 11.3756 10.35 11.3546 10.2514 11.3137C10.1527 11.2728 10.0631 11.2129 9.98766 11.1373L7.3125 8.46117L1.625 14.1487V16.25H20.3125C20.528 16.25 20.7347 16.3356 20.887 16.488C21.0394 16.6403 21.125 16.847 21.125 17.0625Z" fill="#121C27"></path></svg>