<svg xmlns="http://www.w3.org/2000/svg" width="18" height="18" viewBox="0 0 18 18" fill="none"><path d="M18 0.75V4.125C18 4.32391 17.921 4.51468 17.7803 4.65533C17.6397 4.79598 17.4489 4.875 17.25 4.875C17.0511 4.875 16.8603 4.79598 16.7197 4.65533C16.579 4.51468 16.5 4.32391 16.5 4.125V1.5H13.875C13.6761 1.5 13.4853 1.42098 13.3447 1.28033C13.204 1.13968 13.125 0.948912 13.125 0.75C13.125 0.551088 13.204 0.360322 13.3447 0.21967C13.4853 0.0790178 13.6761 0 13.875 0H17.25C17.4489 0 17.6397 0.0790178 17.7803 0.21967C17.921 0.360322 18 0.551088 18 0.75ZM17.25 13.125C17.0511 13.125 16.8603 13.204 16.7197 13.3447C16.579 13.4853 16.5 13.6761 16.5 13.875V16.5H13.875C13.6761 16.5 13.4853 16.579 13.3447 16.7197C13.204 16.8603 13.125 17.0511 13.125 17.25C13.125 17.4489 13.204 17.6397 13.3447 17.7803C13.4853 17.921 13.6761 18 13.875 18H17.25C17.4489 18 17.6397 17.921 17.7803 17.7803C17.921 17.6397 18 17.4489 18 17.25V13.875C18 13.6761 17.921 13.4853 17.7803 13.3447C17.6397 13.204 17.4489 13.125 17.25 13.125ZM4.125 16.5H1.5V13.875C1.5 13.6761 1.42098 13.4853 1.28033 13.3447C1.13968 13.204 0.948912 13.125 0.75 13.125C0.551088 13.125 0.360322 13.204 0.21967 13.3447C0.0790178 13.4853 0 13.6761 0 13.875V17.25C0 17.4489 0.0790178 17.6397 0.21967 17.7803C0.360322 17.921 0.551088 18 0.75 18H4.125C4.32391 18 4.51468 17.921 4.65533 17.7803C4.79598 17.6397 4.875 17.4489 4.875 17.25C4.875 17.0511 4.79598 16.8603 4.65533 16.7197C4.51468 16.579 4.32391 16.5 4.125 16.5ZM0.75 4.875C0.948912 4.875 1.13968 4.79598 1.28033 4.65533C1.42098 4.51468 1.5 4.32391 1.5 4.125V1.5H4.125C4.32391 1.5 4.51468 1.42098 4.65533 1.28033C4.79598 1.13968 4.875 0.948912 4.875 0.75C4.875 0.551088 4.79598 0.360322 4.65533 0.21967C4.51468 0.0790178 4.32391 0 4.125 0H0.75C0.551088 0 0.360322 0.0790178 0.21967 0.21967C0.0790178 0.360322 0 0.551088 0 0.75V4.125C0 4.32391 0.0790178 4.51468 0.21967 4.65533C0.360322 4.79598 0.551088 4.875 0.75 4.875ZM13.5 13.5C13.3835 13.5003 13.2685 13.4734 13.1642 13.4214C13.0599 13.3695 12.9691 13.294 12.8991 13.2009C12.445 12.5955 11.8561 12.1041 11.1792 11.7656C10.5023 11.4271 9.75588 11.2509 8.99906 11.2509C8.24224 11.2509 7.49582 11.4271 6.8189 11.7656C6.14198 12.1041 5.55315 12.5955 5.09906 13.2009C4.97947 13.3601 4.80156 13.4652 4.60447 13.4931C4.40738 13.5211 4.20725 13.4696 4.04813 13.35C3.889 13.2304 3.78389 13.0525 3.75594 12.8554C3.72798 12.6583 3.77947 12.4582 3.89906 12.2991C4.56374 11.4091 5.44961 10.7084 6.46875 10.2666C5.91029 9.75669 5.51903 9.0899 5.34631 8.35369C5.17359 7.61747 5.22749 6.84624 5.50093 6.14121C5.77436 5.43617 6.25456 4.83028 6.87851 4.40304C7.50245 3.9758 8.24099 3.74718 8.99719 3.74718C9.75339 3.74718 10.4919 3.9758 11.1159 4.40304C11.7398 4.83028 12.22 5.43617 12.4934 6.14121C12.7669 6.84624 12.8208 7.61747 12.6481 8.35369C12.4753 9.0899 12.0841 9.75669 11.5256 10.2666C12.5454 10.7081 13.432 11.4088 14.0972 12.2991C14.1809 12.4103 14.232 12.5426 14.2447 12.6812C14.2575 12.8199 14.2314 12.9593 14.1694 13.0839C14.1075 13.2086 14.012 13.3135 13.8938 13.387C13.7756 13.4605 13.6392 13.4996 13.5 13.5ZM9 9.75C9.44501 9.75 9.88002 9.61804 10.25 9.37081C10.62 9.12357 10.9084 8.77217 11.0787 8.36104C11.249 7.9499 11.2936 7.4975 11.2068 7.06105C11.12 6.62459 10.9057 6.22368 10.591 5.90901C10.2763 5.59434 9.87541 5.38005 9.43895 5.29323C9.0025 5.20642 8.5501 5.25097 8.13896 5.42127C7.72783 5.59157 7.37643 5.87996 7.12919 6.24997C6.88196 6.61998 6.75 7.05499 6.75 7.5C6.75 8.09674 6.98705 8.66903 7.40901 9.09099C7.83097 9.51295 8.40326 9.75 9 9.75Z" fill="white"></path></svg>