<svg xmlns="http://www.w3.org/2000/svg" width="21" height="20" viewBox="0 0 21 20" fill="none"><path d="M19.7671 6.54516L1.07961 0.0451611C0.957128 0.00252531 0.826219 -0.0101709 0.697826 0.00813328C0.569434 0.0264374 0.447288 0.0752105 0.3416 0.150375C0.235912 0.22554 0.149753 0.324912 0.0903241 0.440185C0.0308954 0.555459 -7.54814e-05 0.683283 1.38144e-07 0.812974V18.688C1.38144e-07 18.9035 0.0856027 19.1101 0.237976 19.2625C0.390349 19.4149 0.597012 19.5005 0.8125 19.5005C1.02799 19.5005 1.23465 19.4149 1.38702 19.2625C1.5394 19.1101 1.625 18.9035 1.625 18.688V14.3909L19.7671 8.08079C19.9268 8.02553 20.0652 7.92188 20.1632 7.78427C20.2612 7.64665 20.3139 7.48191 20.3139 7.31297C20.3139 7.14403 20.2612 6.97929 20.1632 6.84168C20.0652 6.70406 19.9268 6.60042 19.7671 6.54516ZM1.625 12.6704V1.95555L17.027 7.31297L1.625 12.6704Z" fill="#121C27"></path></svg>