<svg xmlns="http://www.w3.org/2000/svg" width="17" height="17" viewBox="0 0 17 17" fill="none"><path d="M16.1677 15.2787L12.2357 11.3475C13.3753 9.97933 13.9436 8.22443 13.8223 6.4479C13.701 4.67137 12.8995 3.00999 11.5845 1.80937C10.2695 0.60875 8.5422 -0.03867 6.76199 0.00178812C4.98179 0.0422462 3.28571 0.767468 2.02659 2.02659C0.767468 3.28571 0.0422462 4.98179 0.00178812 6.76199C-0.03867 8.5422 0.60875 10.2695 1.80937 11.5845C3.00999 12.8995 4.67137 13.701 6.4479 13.8223C8.22443 13.9436 9.97933 13.3753 11.3475 12.2357L15.2787 16.1677C15.3371 16.226 15.4064 16.2723 15.4826 16.3039C15.5589 16.3355 15.6406 16.3518 15.7232 16.3518C15.8057 16.3518 15.8875 16.3355 15.9637 16.3039C16.04 16.2723 16.1093 16.226 16.1677 16.1677C16.226 16.1093 16.2723 16.04 16.3039 15.9637C16.3355 15.8875 16.3518 15.8057 16.3518 15.7232C16.3518 15.6406 16.3355 15.5589 16.3039 15.4826C16.2723 15.4064 16.226 15.3371 16.1677 15.2787ZM1.27382 6.92792C1.27382 5.80964 1.60543 4.71648 2.22671 3.78667C2.84799 2.85686 3.73104 2.13216 4.76419 1.70422C5.79734 1.27627 6.93419 1.1643 8.03098 1.38247C9.12777 1.60063 10.1352 2.13913 10.926 2.92987C11.7167 3.72061 12.2552 4.72807 12.4734 5.82486C12.6915 6.92165 12.5796 8.0585 12.1516 9.09165C11.7237 10.1248 10.999 11.0078 10.0692 11.6291C9.13936 12.2504 8.04619 12.582 6.92792 12.582C5.42887 12.5804 3.99169 11.9841 2.93171 10.9241C1.87172 9.86415 1.27549 8.42697 1.27382 6.92792Z" fill="#121C27"></path></svg>