<svg xmlns="http://www.w3.org/2000/svg" width="30" height="26" viewBox="0 0 30 26" fill="none"><path d="M20.8125 6.1875C20.8125 4.96373 20.4496 3.76744 19.7697 2.74991C19.0898 1.73238 18.1235 0.939315 16.9929 0.470998C15.8622 0.00268097 14.6181 -0.119852 13.4179 0.118894C12.2176 0.35764 11.1151 0.946942 10.2498 1.81228C9.38444 2.67762 8.79514 3.78012 8.5564 4.98038C8.31765 6.18064 8.44018 7.42474 8.9085 8.55536C9.37682 9.68597 10.1699 10.6523 11.1874 11.3322C12.2049 12.0121 13.4012 12.375 14.625 12.375C16.2655 12.3731 17.8382 11.7206 18.9982 10.5607C20.1581 9.40069 20.8106 7.82796 20.8125 6.1875ZM14.625 10.125C13.8462 10.125 13.085 9.89407 12.4374 9.46142C11.7899 9.02876 11.2852 8.4138 10.9872 7.69432C10.6892 6.97483 10.6112 6.18313 10.7632 5.41933C10.9151 4.65553 11.2901 3.95394 11.8408 3.40327C12.3914 2.8526 13.093 2.47759 13.8568 2.32566C14.6206 2.17373 15.4123 2.25171 16.1318 2.54973C16.8513 2.84775 17.4663 3.35243 17.8989 3.99995C18.3316 4.64746 18.5625 5.40874 18.5625 6.1875C18.5625 7.23179 18.1477 8.23331 17.4092 8.97174C16.6708 9.71016 15.6693 10.125 14.625 10.125ZM23.0625 13.5C21.8387 13.5 20.6424 13.8629 19.6249 14.5428C18.6074 15.2227 17.8143 16.189 17.346 17.3196C16.8777 18.4503 16.7551 19.6944 16.9939 20.8946C17.2326 22.0949 17.8219 23.1974 18.6873 24.0627C19.5526 24.9281 20.6551 25.5174 21.8554 25.7561C23.0556 25.9949 24.2997 25.8723 25.4304 25.404C26.561 24.9357 27.5273 24.1426 28.2072 23.1251C28.8871 22.1076 29.25 20.9113 29.25 19.6875C29.2481 18.047 28.5957 16.4743 27.4357 15.3143C26.2757 14.1544 24.703 13.5019 23.0625 13.5ZM23.0625 23.625C22.2837 23.625 21.5225 23.3941 20.8749 22.9614C20.2274 22.5288 19.7227 21.9138 19.4247 21.1943C19.1267 20.4748 19.0487 19.6831 19.2007 18.9193C19.3526 18.1555 19.7276 17.4539 20.2783 16.9033C20.8289 16.3526 21.5305 15.9776 22.2943 15.8257C23.0581 15.6737 23.8498 15.7517 24.5693 16.0497C25.2888 16.3477 25.9038 16.8524 26.3364 17.4999C26.7691 18.1475 27 18.9087 27 19.6875C27 20.7318 26.5852 21.7333 25.8467 22.4717C25.1083 23.2102 24.1068 23.625 23.0625 23.625ZM6.1875 13.5C4.96373 13.5 3.76744 13.8629 2.74991 14.5428C1.73238 15.2227 0.939315 16.189 0.470998 17.3196C0.00268097 18.4503 -0.119852 19.6944 0.118894 20.8946C0.35764 22.0949 0.946942 23.1974 1.81228 24.0627C2.67762 24.9281 3.78012 25.5174 4.98038 25.7561C6.18064 25.9949 7.42474 25.8723 8.55536 25.404C9.68598 24.9357 10.6523 24.1426 11.3322 23.1251C12.0121 22.1076 12.375 20.9113 12.375 19.6875C12.3731 18.047 11.7207 16.4743 10.5607 15.3143C9.40069 14.1544 7.82796 13.5019 6.1875 13.5ZM6.1875 23.625C5.40874 23.625 4.64746 23.3941 3.99995 22.9614C3.35243 22.5288 2.84775 21.9138 2.54973 21.1943C2.25171 20.4748 2.17373 19.6831 2.32566 18.9193C2.47759 18.1555 2.8526 17.4539 3.40327 16.9033C3.95394 16.3526 4.65553 15.9776 5.41934 15.8257C6.18314 15.6737 6.97483 15.7517 7.69432 16.0497C8.4138 16.3477 9.02876 16.8524 9.46142 17.4999C9.89407 18.1475 10.125 18.9087 10.125 19.6875C10.125 20.7318 9.71016 21.7333 8.97174 22.4717C8.23331 23.2102 7.23179 23.625 6.1875 23.625Z" fill="#121C27"></path></svg>