<svg xmlns="http://www.w3.org/2000/svg" width="36" height="23" viewBox="0 0 36 23" fill="none"><path d="M16.1835 15.4609C17.6913 14.4571 18.836 12.9948 19.4484 11.2901C20.0608 9.58536 20.1083 7.72884 19.5839 5.99504C19.0596 4.26123 17.9912 2.74219 16.5368 1.66256C15.0823 0.582919 13.3191 0 11.5077 0C9.69634 0 7.93307 0.582919 6.47863 1.66256C5.02419 2.74219 3.9558 4.26123 3.43145 5.99504C2.9071 7.72884 2.95464 9.58536 3.56702 11.2901C4.17941 12.9948 5.32413 14.4571 6.83192 15.4609C4.10448 16.4662 1.77519 18.3263 0.191605 20.7639C0.108378 20.8876 0.0505674 21.0266 0.0215353 21.1728C-0.00749683 21.3191 -0.00717178 21.4696 0.0224915 21.6157C0.0521548 21.7618 0.110565 21.9006 0.194326 22.0239C0.278087 22.1473 0.385529 22.2527 0.510406 22.3342C0.635283 22.4156 0.775104 22.4715 0.921742 22.4984C1.06838 22.5253 1.21891 22.5229 1.36458 22.4911C1.51025 22.4593 1.64816 22.399 1.77029 22.3134C1.89241 22.2279 1.99633 22.119 2.07598 21.993C3.09747 20.4219 4.49523 19.1308 6.14234 18.2371C7.78946 17.3434 9.63374 16.8753 11.5077 16.8753C13.3817 16.8753 15.2259 17.3434 16.8731 18.2371C18.5202 19.1308 19.9179 20.4219 20.9394 21.993C21.1044 22.2382 21.3593 22.4086 21.649 22.4675C21.9387 22.5263 22.2398 22.4687 22.4874 22.3072C22.735 22.1457 22.9091 21.8933 22.972 21.6045C23.035 21.3157 22.9817 21.0138 22.8238 20.7639C21.2402 18.3263 18.9109 16.4662 16.1835 15.4609ZM5.3202 8.44092C5.3202 7.21715 5.68309 6.02086 6.36298 5.00333C7.04287 3.9858 8.00923 3.19274 9.13984 2.72442C10.2705 2.2561 11.5146 2.13357 12.7148 2.37232C13.9151 2.61106 15.0176 3.20036 15.8829 4.0657C16.7483 4.93104 17.3376 6.03354 17.5763 7.2338C17.8151 8.43406 17.6925 9.67816 17.2242 10.8088C16.7559 11.9394 15.9628 12.9057 14.9453 13.5856C13.9278 14.2655 12.7315 14.6284 11.5077 14.6284C9.86724 14.6266 8.29451 13.9741 7.13453 12.8141C5.97455 11.6541 5.32206 10.0814 5.3202 8.44092ZM34.8711 22.3206C34.6212 22.4836 34.3169 22.5406 34.0249 22.4791C33.733 22.4177 33.4774 22.2428 33.3144 21.993C32.2942 20.4209 30.8966 19.1293 29.2491 18.236C27.6017 17.3426 25.7568 16.8759 23.8827 16.8784C23.5843 16.8784 23.2982 16.7599 23.0872 16.5489C22.8762 16.3379 22.7577 16.0518 22.7577 15.7534C22.7577 15.4551 22.8762 15.1689 23.0872 14.9579C23.2982 14.7469 23.5843 14.6284 23.8827 14.6284C24.7939 14.6276 25.6937 14.4255 26.5177 14.0366C27.3418 13.6476 28.0697 13.0815 28.6496 12.3787C29.2295 11.6758 29.647 10.8535 29.8723 9.97061C30.0976 9.08769 30.125 8.16591 29.9528 7.27113C29.7805 6.37636 29.4127 5.53068 28.8757 4.79451C28.3388 4.05835 27.6458 3.44987 26.8464 3.01256C26.047 2.57526 25.1608 2.31991 24.2513 2.26477C23.3418 2.20962 22.4313 2.35605 21.5849 2.69358C21.4469 2.75324 21.2983 2.78463 21.148 2.7859C20.9977 2.78717 20.8486 2.75829 20.7096 2.70098C20.5706 2.64366 20.4445 2.55907 20.3388 2.4522C20.233 2.34532 20.1498 2.21834 20.0939 2.07875C20.0381 1.93916 20.0108 1.7898 20.0137 1.63948C20.0166 1.48917 20.0495 1.34095 20.1106 1.20359C20.1718 1.06623 20.2598 0.942516 20.3695 0.839755C20.4793 0.736994 20.6085 0.657272 20.7496 0.605298C22.6866 -0.167224 24.8411 -0.195023 26.7975 0.527261C28.7538 1.24955 30.3734 2.67074 31.3437 4.51666C32.314 6.36259 32.5663 8.50246 32.052 10.5235C31.5377 12.5445 30.2932 14.3034 28.5585 15.4609C31.2859 16.4662 33.6152 18.3263 35.1988 20.7639C35.3617 21.0138 35.4188 21.3182 35.3573 21.6101C35.2959 21.902 35.121 22.1576 34.8711 22.3206Z" fill="#121C27"></path></svg>