<svg xmlns="http://www.w3.org/2000/svg" fill="none" height="512" viewBox="0 0 24 24" width="512"><path clip-rule="evenodd" d="m9.87574 2.22361c1.33726-.66863 2.91126-.66863 4.24856 0l5.1055 2.55278c.9317.46583 1.5202 1.41805 1.5202 2.45968v7.54693c0 1.6378-.8437 3.16-2.2325 4.028l-5.06 3.1625c-.8917.5573-2.0233.5573-2.915 0l-5.06-3.1625c-1.38881-.868-2.2325-2.3902-2.2325-4.028v-7.54693c0-1.04163.58851-1.99385 1.52016-2.45968zm5.65456 8.30669c.2929-.2929.2929-.76774 0-1.06063s-.7677-.29289-1.0606 0l-3.4697 3.46963-1.46967-1.4696c-.29289-.2929-.76777-.2929-1.06066 0s-.29289.7677 0 1.0606l2.00003 2c.1406.1407.3314.2197.5303.2197s.3897-.079.5303-.2197z" fill="rgb(0,0,0)" fill-rule="evenodd"></path></svg>