<svg xmlns="http://www.w3.org/2000/svg" xmlns:xlink="http://www.w3.org/1999/xlink" id="Layer_1" x="0px" y="0px" viewBox="0 0 512 512" style="enable-background:new 0 0 512 512;" xml:space="preserve"><style type="text/css">	.st0{fill-rule:evenodd;clip-rule:evenodd;}</style><path class="st0" d="M256,98.7c-42,0-76,34-76,76s34,76,76,76s76-34,76-76S298,98.7,256,98.7L256,98.7z M256,276.1 c-5.1,0.1-10.1,0.4-15.1,0.9l5.1,15.7h20.1l5.1-15.7C266.1,276.5,261.1,276.2,256,276.1L256,276.1z M246.7,304.9L230.9,408 l25.1,25.3l25.1-25.3l-15.9-103.1H246.7L246.7,304.9z M228.8,278.8l6.6,20.5l-16.9,109.9c-0.3,1.9,0.4,3.8,1.7,5.2l31.6,31.9 c2.4,2.4,6.2,2.3,8.5,0l31.3-31.5c1.5-1.3,2.3-3.3,2-5.4l-16.9-109.9l6.6-20.5c69,12.7,123.4,68.7,133.6,138.5 c2.3,15.8-4.2,30.5-17.3,39.5c-43.6,29.8-107.9,41.3-143.5,41.3s-99.9-11.5-143.5-41.3c-13.2-9-19.7-23.8-17.3-39.5 C105.4,347.5,159.7,291.5,228.8,278.8L228.8,278.8z"></path></svg>